<svg id="Capa_1" enable-background="new 0 0 512 512" height="512" viewBox="0 0 512 512" width="512" xmlns="http://www.w3.org/2000/svg"><g><g><g><g><g><g><g><g><g><g><g><circle cx="256" cy="256" fill="#fcd015" r="256"/></g></g></g></g></g></g></g></g></g></g><path d="m511.988 258.495-189.741-189.741-121.921 38.341-76.409 92.987-34.301-34.301-.782 90.269 115.547 115.547-2.213 2.06-80.442-80.442 42.573 115.685-32.416 30.169 66.396 66.396c18.551 4.276 37.872 6.535 57.721 6.535 140.552 0 254.649-113.27 255.988-253.505z" fill="#ffa300"/><g><path d="m368.064 126.262c-30.423-24.43-68.706-37.885-107.798-37.885-39.091 0-77.375 13.455-107.797 37.885-23.23 18.655-41.244 43.134-52.225 70.536l-10.628-31.017-28.38 9.725 27.598 80.544 80.545-27.599-9.725-28.38-32.874 11.264c8.906-24.007 24.313-45.492 44.473-61.681 25.479-20.461 56.26-31.276 89.013-31.276 32.754 0 63.534 10.815 89.014 31.276 24.753 19.877 42.343 47.738 49.528 78.448l29.211-6.835c-8.706-37.208-29.998-70.949-59.955-95.005z" fill="#414952"/><g><g><path d="m368.064 126.262c-30.423-24.43-68.706-37.885-107.798-37.885-1.559 0-3.116.029-4.671.072v30.01c1.553-.049 3.109-.082 4.671-.082 32.754 0 63.534 10.815 89.014 31.276 24.753 19.877 42.343 47.738 49.528 78.448l29.211-6.835c-8.706-37.207-29.998-70.948-59.955-95.004z" fill="#23272b"/></g><g><path d="m260.267 432.939c-39.091 0-77.375-13.455-107.797-37.885-29.957-24.056-51.249-57.796-59.955-95.004l29.211-6.835c7.186 30.71 24.775 58.57 49.528 78.448 25.479 20.461 56.26 31.276 89.013 31.276 32.754 0 63.534-10.815 89.014-31.276 24.753-19.877 42.343-47.737 49.528-78.448l29.211 6.835c-8.706 37.208-29.999 70.948-59.955 95.004-30.423 24.43-68.707 37.885-107.798 37.885z" fill="#414952"/></g></g><path d="m451.408 358.783-12.6-84.204-84.204 12.6 4.439 29.67 34.031-5.093c-8.998 23.29-24.133 44.117-43.795 59.906-25.479 20.461-56.26 31.276-89.014 31.276-1.562 0-3.118-.032-4.671-.082v30.01c1.556.042 3.113.072 4.671.072 39.092 0 77.375-13.455 107.798-37.885 21.087-16.934 37.872-38.669 49.005-63.032l4.669 31.2z" fill="#23272b"/></g><g><path d="m312.778 257.257v-157.595h-113.556v157.595l-27.18 51.743h167.916z" fill="#fff"/></g><g><path d="m312.778 257.257v-157.595h-57.183v209.338h84.363z" fill="#e9edf5"/></g><g><path d="m338.95 307.081h-165.9l-47.846 91.087c-12.04 22.92 4.583 50.429 30.473 50.429h200.645c25.89 0 42.513-27.508 30.473-50.429z" fill="#1dd882"/></g><g><path d="m386.796 398.168-47.846-91.087h-83.354v141.515h100.728c25.889.001 42.512-27.508 30.472-50.428z" fill="#2cc47f"/></g><g><path d="m189.753 68.754h132.495v41.573h-132.495z" fill="#dbeeff"/></g><g><path d="m255.595 68.754h66.652v41.573h-66.652z" fill="#a3d4ff"/></g><g><circle cx="200.326" cy="353.142" fill="#0d9b50" r="24.697"/></g><g><circle cx="306.102" cy="360.516" fill="#0a9154" r="32.071"/></g><g><circle cx="255.859" cy="410.255" fill="#0d9b50" r="18.172"/></g><g><path d="m255.859 392.084c-.089 0-.175.012-.264.013v36.316c.089.001.175.013.264.013 10.036 0 18.172-8.135 18.172-18.172 0-10.035-8.136-18.17-18.172-18.17z" fill="#0a9154"/></g><g><circle cx="158.843" cy="413.394" fill="#0d9b50" r="10.682"/></g><g><circle cx="357.572" cy="413.167" fill="#0a9154" r="11.997"/></g></g></svg>